<svg width="20" height="12" viewBox="0 0 20 12" fill="none" xmlns="http://www.w3.org/2000/svg">
<path d="M19.1162 5.75684C19.1162 6.51855 19.0063 7.24365 18.7866 7.93213C18.5669 8.62061 18.2544 9.22363 17.8491 9.74121C17.4438 10.2588 16.958 10.6689 16.3916 10.9717C15.8252 11.2744 15.1953 11.4258 14.502 11.4258C13.5352 11.4258 12.6196 11.123 11.7554 10.5176C10.8911 9.91211 10.0928 8.92578 9.36035 7.55859C8.73535 8.79883 8.02246 9.73877 7.22168 10.3784C6.4209 11.0181 5.56641 11.3379 4.6582 11.3379C3.97461 11.3379 3.34717 11.2036 2.77588 10.9351C2.20459 10.6665 1.71387 10.2881 1.30371 9.7998C0.893555 9.31152 0.57373 8.71826 0.344238 8.02002C0.114746 7.32178 0 6.53809 0 5.66895C0 4.87793 0.109863 4.13574 0.32959 3.44238C0.549316 2.74902 0.861816 2.14844 1.26709 1.64062C1.67236 1.13281 2.16309 0.732422 2.73926 0.439453C3.31543 0.146484 3.95508 0 4.6582 0C5.11719 0 5.57617 0.0683594 6.03516 0.205078C6.49414 0.341797 6.94336 0.559082 7.38281 0.856934C7.82227 1.15479 8.24219 1.54541 8.64258 2.02881C9.04297 2.51221 9.41406 3.0957 9.75586 3.7793C10.3809 2.55859 11.0767 1.63818 11.8433 1.01807C12.6099 0.397949 13.5059 0.0878906 14.5312 0.0878906C15.2148 0.0878906 15.8374 0.222168 16.3989 0.490723C16.9604 0.759277 17.4414 1.14014 17.8418 1.6333C18.2422 2.12646 18.5547 2.72217 18.7793 3.42041C19.0039 4.11865 19.1162 4.89746 19.1162 5.75684ZM14.8096 1.62598C14.0283 1.62598 13.313 1.96777 12.6636 2.65137C12.0142 3.33496 11.377 4.37012 10.752 5.75684C11.3379 7.13379 11.9556 8.16895 12.605 8.8623C13.2544 9.55566 13.999 9.90234 14.8389 9.90234C15.3271 9.90234 15.769 9.79248 16.1646 9.57275C16.5601 9.35303 16.8945 9.05518 17.168 8.6792C17.4414 8.30322 17.6514 7.86133 17.7979 7.35352C17.9443 6.8457 18.0176 6.30371 18.0176 5.72754C18.0176 5.15137 17.9395 4.61182 17.7832 4.10889C17.627 3.60596 17.4097 3.17139 17.1313 2.80518C16.853 2.43896 16.5161 2.15088 16.1206 1.94092C15.7251 1.73096 15.2881 1.62598 14.8096 1.62598ZM8.32031 5.66895C7.76367 4.30176 7.16064 3.26904 6.51123 2.5708C5.86182 1.87256 5.09766 1.52344 4.21875 1.52344C3.75 1.52344 3.32275 1.6333 2.93701 1.85303C2.55127 2.07275 2.22412 2.37061 1.95557 2.74658C1.68701 3.12256 1.47949 3.56445 1.33301 4.07227C1.18652 4.58008 1.11328 5.12207 1.11328 5.69824C1.11328 6.25488 1.1792 6.78223 1.31104 7.28027C1.44287 7.77832 1.64062 8.21533 1.9043 8.59131C2.16797 8.96729 2.49756 9.26514 2.89307 9.48486C3.28857 9.70459 3.75 9.81445 4.27734 9.81445C5.06836 9.81445 5.79102 9.47021 6.44531 8.78174C7.09961 8.09326 7.72461 7.05566 8.32031 5.66895Z" fill="#DAB9FF"/>
</svg>
