<svg width="71" height="21" viewBox="0 0 71 21" fill="none" xmlns="http://www.w3.org/2000/svg">
<path d="M5.835 19.335V1.69495L6.63 2.77495L0.179996 4.51495L-3.44217e-06 3.95995L7.845 -5.05447e-05H8.265V19.335L12.36 20.13V20.7H1.5V20.13L5.835 19.335ZM22.7414 19.875C23.7214 19.875 24.5564 19.525 25.2464 18.825C25.9464 18.115 26.4814 17.095 26.8514 15.765C27.2314 14.425 27.4214 12.82 27.4214 10.95C27.4214 9.40995 27.3114 8.02995 27.0914 6.80995C26.8814 5.58995 26.5664 4.55995 26.1464 3.71995C25.7364 2.86995 25.2364 2.22495 24.6464 1.78495C24.0564 1.34495 23.3914 1.12495 22.6514 1.12495C21.6714 1.12495 20.8314 1.47995 20.1314 2.18995C19.4314 2.88995 18.8914 3.90495 18.5114 5.23495C18.1414 6.56495 17.9564 8.16995 17.9564 10.05C17.9564 11.59 18.0664 12.97 18.2864 14.19C18.5064 15.41 18.8214 16.445 19.2314 17.295C19.6514 18.135 20.1564 18.775 20.7464 19.215C21.3364 19.655 22.0014 19.875 22.7414 19.875ZM22.7114 -5.05447e-05C24.1814 -5.05447e-05 25.4664 0.43995 26.5664 1.31995C27.6664 2.19995 28.5214 3.42495 29.1314 4.99495C29.7414 6.55495 30.0464 8.37995 30.0464 10.47C30.0464 12.56 29.7364 14.395 29.1164 15.975C28.5064 17.555 27.6514 18.79 26.5514 19.68C25.4514 20.56 24.1614 21 22.6814 21C21.2314 21 19.9514 20.565 18.8414 19.695C17.7414 18.815 16.8814 17.59 16.2614 16.02C15.6514 14.44 15.3464 12.61 15.3464 10.53C15.3464 8.43995 15.6564 6.60495 16.2764 5.02495C16.8964 3.44495 17.7564 2.21495 18.8564 1.33495C19.9664 0.44495 21.2514 -5.05447e-05 22.7114 -5.05447e-05ZM39.5578 19.875C40.5378 19.875 41.3728 19.525 42.0628 18.825C42.7628 18.115 43.2978 17.095 43.6678 15.765C44.0478 14.425 44.2378 12.82 44.2378 10.95C44.2378 9.40995 44.1278 8.02995 43.9078 6.80995C43.6978 5.58995 43.3828 4.55995 42.9628 3.71995C42.5528 2.86995 42.0528 2.22495 41.4628 1.78495C40.8728 1.34495 40.2078 1.12495 39.4678 1.12495C38.4878 1.12495 37.6478 1.47995 36.9478 2.18995C36.2478 2.88995 35.7078 3.90495 35.3278 5.23495C34.9578 6.56495 34.7728 8.16995 34.7728 10.05C34.7728 11.59 34.8828 12.97 35.1028 14.19C35.3228 15.41 35.6378 16.445 36.0478 17.295C36.4678 18.135 36.9728 18.775 37.5628 19.215C38.1528 19.655 38.8178 19.875 39.5578 19.875ZM39.5278 -5.05447e-05C40.9978 -5.05447e-05 42.2828 0.43995 43.3828 1.31995C44.4828 2.19995 45.3378 3.42495 45.9478 4.99495C46.5578 6.55495 46.8628 8.37995 46.8628 10.47C46.8628 12.56 46.5528 14.395 45.9328 15.975C45.3228 17.555 44.4678 18.79 43.3678 19.68C42.2678 20.56 40.9778 21 39.4978 21C38.0478 21 36.7678 20.565 35.6578 19.695C34.5578 18.815 33.6978 17.59 33.0778 16.02C32.4678 14.44 32.1628 12.61 32.1628 10.53C32.1628 8.43995 32.4728 6.60495 33.0928 5.02495C33.7128 3.44495 34.5728 2.21495 35.6728 1.33495C36.7828 0.44495 38.0678 -5.05447e-05 39.5278 -5.05447e-05ZM51.6342 20.7L65.8092 0.299951H67.2642L53.0892 20.7H51.6342ZM53.3742 10.8C54.0742 10.8 54.6142 10.39 54.9942 9.56995C55.3742 8.74995 55.5642 7.61995 55.5642 6.17995C55.5642 5.08995 55.4742 4.16995 55.2942 3.41995C55.1242 2.65995 54.8692 2.07995 54.5292 1.67995C54.1992 1.27995 53.7942 1.07995 53.3142 1.07995C52.6042 1.07995 52.0592 1.48995 51.6792 2.30995C51.2992 3.11995 51.1092 4.24995 51.1092 5.69995C51.1092 6.77995 51.1942 7.70495 51.3642 8.47495C51.5442 9.23495 51.8042 9.81495 52.1442 10.215C52.4942 10.605 52.9042 10.8 53.3742 10.8ZM53.3442 11.745C52.4642 11.745 51.6892 11.505 51.0192 11.025C50.3492 10.535 49.8292 9.85495 49.4592 8.98495C49.0892 8.11495 48.9042 7.10495 48.9042 5.95495C48.9042 4.79495 49.0892 3.77995 49.4592 2.90995C49.8292 2.03995 50.3492 1.35995 51.0192 0.869951C51.6992 0.379951 52.4792 0.13495 53.3592 0.13495C54.2392 0.13495 55.0092 0.379951 55.6692 0.869951C56.3392 1.34995 56.8592 2.02495 57.2292 2.89495C57.5992 3.75495 57.7842 4.76495 57.7842 5.92495C57.7842 7.07495 57.5992 8.08995 57.2292 8.96995C56.8592 9.84995 56.3392 10.535 55.6692 11.025C55.0092 11.505 54.2342 11.745 53.3442 11.745ZM65.6292 19.92C66.3292 19.92 66.8692 19.51 67.2492 18.69C67.6292 17.87 67.8192 16.74 67.8192 15.3C67.8192 14.21 67.7292 13.29 67.5492 12.54C67.3792 11.78 67.1242 11.2 66.7842 10.8C66.4542 10.4 66.0492 10.2 65.5692 10.2C64.8592 10.2 64.3142 10.61 63.9342 11.43C63.5542 12.24 63.3642 13.37 63.3642 14.82C63.3642 15.9 63.4492 16.825 63.6192 17.595C63.7992 18.355 64.0592 18.935 64.3992 19.335C64.7492 19.725 65.1592 19.92 65.6292 19.92ZM65.5992 20.865C64.7192 20.865 63.9442 20.625 63.2742 20.145C62.6042 19.655 62.0842 18.975 61.7142 18.105C61.3442 17.235 61.1592 16.225 61.1592 15.075C61.1592 13.915 61.3442 12.9 61.7142 12.03C62.0842 11.16 62.6042 10.48 63.2742 9.98995C63.9542 9.49995 64.7342 9.25495 65.6142 9.25495C66.4942 9.25495 67.2642 9.49995 67.9242 9.98995C68.5942 10.47 69.1142 11.145 69.4842 12.015C69.8542 12.875 70.0392 13.885 70.0392 15.045C70.0392 16.195 69.8542 17.21 69.4842 18.09C69.1142 18.97 68.5942 19.655 67.9242 20.145C67.2642 20.625 66.4892 20.865 65.5992 20.865Z" fill="#DAB9FF"/>
</svg>
